<?xml version="1.0" encoding="UTF-8" standalone="no"?>
<!DOCTYPE svg PUBLIC "-//W3C//DTD SVG 1.1//EN"
 "http://www.w3.org/Graphics/SVG/1.1/DTD/svg11.dtd">
<!-- Generated by graphviz version 16.0.0 (20260814.1018)
 -->
<!-- Title: RetailMetricsCustomerPortal Pages: 1 -->
<svg width="2722pt" height="1075pt"
 viewBox="0.00 0.00 2722.00 1075.00" xmlns="http://www.w3.org/2000/svg" xmlns:xlink="http://www.w3.org/1999/xlink">
<g id="graph0" class="graph" transform="scale(1 1) rotate(0) translate(21.6 1053.45)">
<title>RetailMetricsCustomerPortal</title>
<polygon fill="#f8fafc" stroke="none" points="-21.6,21.6 -21.6,-1053.45 2700.88,-1053.45 2700.88,21.6 -21.6,21.6"/>
<text xml:space="preserve" text-anchor="middle" x="1339.64" y="-1006.95" font-family="Segoe UI" font-size="22.00">RetailMetrics — Customer Portal ERD (Migration 002)</text>
<!-- app_users -->
<g id="node1" class="node">
<title>app_users</title>
<path fill="#ccfbf1" stroke="#64748b" d="M25.5,-776.75C25.5,-776.75 269.79,-776.75 269.79,-776.75 275.79,-776.75 281.79,-782.75 281.79,-788.75 281.79,-788.75 281.79,-848.45 281.79,-848.45 281.79,-854.45 275.79,-860.45 269.79,-860.45 269.79,-860.45 25.5,-860.45 25.5,-860.45 19.5,-860.45 13.5,-854.45 13.5,-848.45 13.5,-848.45 13.5,-788.75 13.5,-788.75 13.5,-782.75 19.5,-776.75 25.5,-776.75"/>
<text xml:space="preserve" text-anchor="middle" x="61.26" y="-816.43" font-family="Segoe UI" font-size="9.00">app_users (staff only)</text>
<polyline fill="none" stroke="#64748b" points="109.02,-776.75 109.02,-860.45"/>
<text xml:space="preserve" text-anchor="start" x="114.78" y="-848.3" font-family="Segoe UI" font-size="9.00">PK app_user_id : BIGINT</text>
<text xml:space="preserve" text-anchor="start" x="114.78" y="-835.55" font-family="Segoe UI" font-size="9.00">username / email : UQ, NN</text>
<text xml:space="preserve" text-anchor="start" x="114.78" y="-822.8" font-family="Segoe UI" font-size="9.00">password_hash : NN</text>
<text xml:space="preserve" text-anchor="start" x="114.78" y="-810.05" font-family="Segoe UI" font-size="9.00">role : admin / operations_staff / analyst</text>
<text xml:space="preserve" text-anchor="start" x="114.78" y="-797.3" font-family="Segoe UI" font-size="9.00">is_active / lockout / reset / token_version</text>
<text xml:space="preserve" text-anchor="start" x="114.78" y="-784.55" font-family="Segoe UI" font-size="9.00">row_version / timestamps</text>
</g>
<!-- products -->
<g id="node8" class="node">
<title>products</title>
<path fill="#ede9fe" stroke="#64748b" d="M479.91,-662.12C479.91,-662.12 656.7,-662.12 656.7,-662.12 662.7,-662.12 668.7,-668.12 668.7,-674.12 668.7,-674.12 668.7,-721.08 668.7,-721.08 668.7,-727.08 662.7,-733.08 656.7,-733.08 656.7,-733.08 479.91,-733.08 479.91,-733.08 473.91,-733.08 467.91,-727.08 467.91,-721.08 467.91,-721.08 467.91,-674.12 467.91,-674.12 467.91,-668.12 473.91,-662.12 479.91,-662.12"/>
<text xml:space="preserve" text-anchor="middle" x="491.3" y="-695.43" font-family="Segoe UI" font-size="9.00">products</text>
<polyline fill="none" stroke="#64748b" points="514.68,-662.12 514.68,-733.08"/>
<text xml:space="preserve" text-anchor="start" x="520.44" y="-720.93" font-family="Segoe UI" font-size="9.00">PK product_id : BIGINT</text>
<text xml:space="preserve" text-anchor="start" x="520.44" y="-708.18" font-family="Segoe UI" font-size="9.00">product_name / created_at : NN</text>
<text xml:space="preserve" text-anchor="start" x="520.44" y="-695.43" font-family="Segoe UI" font-size="9.00">FK created_by_app_user_id : BIGINT?</text>
<text xml:space="preserve" text-anchor="start" x="520.44" y="-682.68" font-family="Segoe UI" font-size="9.00">record_origin : imported / staff, NN</text>
<text xml:space="preserve" text-anchor="start" x="520.44" y="-669.93" font-family="Segoe UI" font-size="9.00">row_version : NN</text>
</g>
<!-- app_users&#45;&gt;products -->
<g id="edge25" class="edge">
<title>app_users&#45;&gt;products</title>
<path fill="none" stroke="#0f766e" stroke-dasharray="5,2" d="M279.8,-776.26C310.92,-766.22 335.29,-758.35 335.29,-758.35 335.29,-758.35 404.68,-740.18 467.57,-723.72"/>
<text xml:space="preserve" text-anchor="middle" x="366.04" y="-762" font-family="Segoe UI" font-size="8.00">creator 1 to 0..*</text>
</g>
<!-- product_catalog_details -->
<g id="node9" class="node">
<title>product_catalog_details</title>
<path fill="#f3e8ff" stroke="#64748b" d="M1103.62,-734.12C1103.62,-734.12 1356.91,-734.12 1356.91,-734.12 1362.91,-734.12 1368.91,-740.12 1368.91,-746.12 1368.91,-746.12 1368.91,-793.08 1368.91,-793.08 1368.91,-799.08 1362.91,-805.08 1356.91,-805.08 1356.91,-805.08 1103.62,-805.08 1103.62,-805.08 1097.62,-805.08 1091.62,-799.08 1091.62,-793.08 1091.62,-793.08 1091.62,-746.12 1091.62,-746.12 1091.62,-740.12 1097.62,-734.12 1103.62,-734.12"/>
<text xml:space="preserve" text-anchor="middle" x="1144.26" y="-767.43" font-family="Segoe UI" font-size="9.00">product_catalog_details</text>
<polyline fill="none" stroke="#64748b" points="1196.89,-734.12 1196.89,-805.08"/>
<text xml:space="preserve" text-anchor="start" x="1202.65" y="-792.93" font-family="Segoe UI" font-size="9.00">PK/FK product_id : BIGINT</text>
<text xml:space="preserve" text-anchor="start" x="1202.65" y="-780.18" font-family="Segoe UI" font-size="9.00">description / current price / COGS : NN</text>
<text xml:space="preserve" text-anchor="start" x="1202.65" y="-767.43" font-family="Segoe UI" font-size="9.00">image_url : ? / is_available : NN</text>
<text xml:space="preserve" text-anchor="start" x="1202.65" y="-754.68" font-family="Segoe UI" font-size="9.00">FK updated_by_app_user_id : BIGINT, NN</text>
<text xml:space="preserve" text-anchor="start" x="1202.65" y="-741.93" font-family="Segoe UI" font-size="9.00">row_version / timestamps</text>
</g>
<!-- app_users&#45;&gt;product_catalog_details -->
<g id="edge29" class="edge">
<title>app_users&#45;&gt;product_catalog_details</title>
<path fill="none" stroke="#0f766e" stroke-dasharray="5,2" d="M282.23,-812.54C488.49,-803.19 882.42,-785.33 1091.29,-775.86"/>
<text xml:space="preserve" text-anchor="middle" x="568.31" y="-808.81" font-family="Segoe UI" font-size="8.00">updated by 1 to 0..*</text>
</g>
<!-- orders -->
<g id="node12" class="node">
<title>orders</title>
<path fill="#fce7f3" stroke="#64748b" d="M1124.25,-415.62C1124.25,-415.62 1336.29,-415.62 1336.29,-415.62 1342.29,-415.62 1348.29,-421.62 1348.29,-427.62 1348.29,-427.62 1348.29,-525.58 1348.29,-525.58 1348.29,-531.58 1342.29,-537.58 1336.29,-537.58 1336.29,-537.58 1124.25,-537.58 1124.25,-537.58 1118.25,-537.58 1112.25,-531.58 1112.25,-525.58 1112.25,-525.58 1112.25,-427.62 1112.25,-427.62 1112.25,-421.62 1118.25,-415.62 1124.25,-415.62"/>
<text xml:space="preserve" text-anchor="middle" x="1130.38" y="-474.43" font-family="Segoe UI" font-size="9.00">orders</text>
<polyline fill="none" stroke="#64748b" points="1148.52,-415.62 1148.52,-537.58"/>
<text xml:space="preserve" text-anchor="start" x="1154.28" y="-525.43" font-family="Segoe UI" font-size="9.00">PK order_id : BIGINT</text>
<text xml:space="preserve" text-anchor="start" x="1154.28" y="-512.68" font-family="Segoe UI" font-size="9.00">FK/UQ website_session_id : BIGINT?</text>
<text xml:space="preserve" text-anchor="start" x="1154.28" y="-499.93" font-family="Segoe UI" font-size="9.00">dataset user_id : BIGINT?</text>
<text xml:space="preserve" text-anchor="start" x="1154.28" y="-487.18" font-family="Segoe UI" font-size="9.00">FK primary_product_id : BIGINT?</text>
<text xml:space="preserve" text-anchor="start" x="1154.28" y="-474.43" font-family="Segoe UI" font-size="9.00">FK customer_account_id : BIGINT?</text>
<text xml:space="preserve" text-anchor="start" x="1154.28" y="-461.68" font-family="Segoe UI" font-size="9.00">FK created_by_app_user_id : BIGINT?</text>
<text xml:space="preserve" text-anchor="start" x="1154.28" y="-448.93" font-family="Segoe UI" font-size="9.00">record_origin : imported / staff / customer</text>
<text xml:space="preserve" text-anchor="start" x="1154.28" y="-436.18" font-family="Segoe UI" font-size="9.00">order_status : lifecycle status?</text>
<text xml:space="preserve" text-anchor="start" x="1154.28" y="-423.43" font-family="Segoe UI" font-size="9.00">items / price / COGS / row_version / timestamps</text>
</g>
<!-- app_users&#45;&gt;orders -->
<g id="edge26" class="edge">
<title>app_users&#45;&gt;orders</title>
<path fill="none" stroke="#0f766e" stroke-dasharray="5,2" d="M216.2,-776.34C301.37,-723.06 436.79,-638.35 436.79,-638.35 436.79,-638.35 739.83,-601.6 739.83,-601.6 739.83,-601.6 1049.37,-567.6 1049.37,-567.6 1049.37,-567.6 1077.65,-553.29 1111.78,-536.03"/>
<text xml:space="preserve" text-anchor="middle" x="568.31" y="-642" font-family="Segoe UI" font-size="8.00">creator 1 to 0..*</text>
</g>
<!-- order_items -->
<g id="node13" class="node">
<title>order_items</title>
<path fill="#fce7f3" stroke="#64748b" d="M1600.79,-771.38C1600.79,-771.38 1792.58,-771.38 1792.58,-771.38 1798.58,-771.38 1804.58,-777.38 1804.58,-783.38 1804.58,-783.38 1804.58,-855.83 1804.58,-855.83 1804.58,-861.83 1798.58,-867.83 1792.58,-867.83 1792.58,-867.83 1600.79,-867.83 1600.79,-867.83 1594.79,-867.83 1588.79,-861.83 1588.79,-855.83 1588.79,-855.83 1588.79,-783.38 1588.79,-783.38 1588.79,-777.38 1594.79,-771.38 1600.79,-771.38"/>
<text xml:space="preserve" text-anchor="middle" x="1617.42" y="-817.43" font-family="Segoe UI" font-size="9.00">order_items</text>
<polyline fill="none" stroke="#64748b" points="1646.06,-771.38 1646.06,-867.83"/>
<text xml:space="preserve" text-anchor="start" x="1651.82" y="-855.68" font-family="Segoe UI" font-size="9.00">PK order_item_id : BIGINT</text>
<text xml:space="preserve" text-anchor="start" x="1651.82" y="-842.93" font-family="Segoe UI" font-size="9.00">FK order_id / product_id : BIGINT, NN</text>
<text xml:space="preserve" text-anchor="start" x="1651.82" y="-830.18" font-family="Segoe UI" font-size="9.00">price / COGS : NN</text>
<text xml:space="preserve" text-anchor="start" x="1651.82" y="-817.43" font-family="Segoe UI" font-size="9.00">FK created_by_app_user_id : BIGINT?</text>
<text xml:space="preserve" text-anchor="start" x="1651.82" y="-804.68" font-family="Segoe UI" font-size="9.00">record_origin : matches parent, NN</text>
<text xml:space="preserve" text-anchor="start" x="1651.82" y="-791.93" font-family="Segoe UI" font-size="9.00">row_version : NN</text>
<text xml:space="preserve" text-anchor="start" x="1651.82" y="-779.18" font-family="Segoe UI" font-size="9.00">(no customer_account_id)</text>
</g>
<!-- app_users&#45;&gt;order_items -->
<g id="edge27" class="edge">
<title>app_users&#45;&gt;order_items</title>
<path fill="none" stroke="#0f766e" stroke-dasharray="5,2" d="M282.05,-824.32C312.09,-825.61 335.29,-826.6 335.29,-826.6 335.29,-826.6 396.79,-826.6 396.79,-826.6 396.79,-826.6 1277.61,-821.85 1588.56,-820.18"/>
<text xml:space="preserve" text-anchor="middle" x="894.6" y="-828.39" font-family="Segoe UI" font-size="8.00">creator 1 to 0..*</text>
</g>
<!-- refund_requests -->
<g id="node16" class="node">
<title>refund_requests</title>
<path fill="#dcfce7" stroke="#64748b" d="M1989.95,-793.75C1989.95,-793.75 2231.99,-793.75 2231.99,-793.75 2237.99,-793.75 2243.99,-799.75 2243.99,-805.75 2243.99,-805.75 2243.99,-865.45 2243.99,-865.45 2243.99,-871.45 2237.99,-877.45 2231.99,-877.45 2231.99,-877.45 1989.95,-877.45 1989.95,-877.45 1983.95,-877.45 1977.95,-871.45 1977.95,-865.45 1977.95,-865.45 1977.95,-805.75 1977.95,-805.75 1977.95,-799.75 1983.95,-793.75 1989.95,-793.75"/>
<text xml:space="preserve" text-anchor="middle" x="2015.21" y="-833.43" font-family="Segoe UI" font-size="9.00">refund_requests</text>
<polyline fill="none" stroke="#64748b" points="2052.47,-793.75 2052.47,-877.45"/>
<text xml:space="preserve" text-anchor="start" x="2058.23" y="-865.3" font-family="Segoe UI" font-size="9.00">PK refund_request_id : BIGINT identity</text>
<text xml:space="preserve" text-anchor="start" x="2058.23" y="-852.55" font-family="Segoe UI" font-size="9.00">FK customer / order / order_item : BIGINT, NN</text>
<text xml:space="preserve" text-anchor="start" x="2058.23" y="-839.8" font-family="Segoe UI" font-size="9.00">reason / amount / status : NN</text>
<text xml:space="preserve" text-anchor="start" x="2058.23" y="-827.05" font-family="Segoe UI" font-size="9.00">resolution_note : ?</text>
<text xml:space="preserve" text-anchor="start" x="2058.23" y="-814.3" font-family="Segoe UI" font-size="9.00">FK reviewed_by_app_user_id / reviewed_at : ?</text>
<text xml:space="preserve" text-anchor="start" x="2058.23" y="-801.55" font-family="Segoe UI" font-size="9.00">row_version / timestamps</text>
</g>
<!-- app_users&#45;&gt;refund_requests -->
<g id="edge30" class="edge">
<title>app_users&#45;&gt;refund_requests</title>
<path fill="none" stroke="#0f766e" stroke-dasharray="5,2" d="M282.26,-846.69C404.79,-872.44 567.31,-906.6 567.31,-906.6 567.31,-906.6 567.31,-906.6 1447.79,-906.6 1447.79,-906.6 1870.95,-880.6 1870.95,-880.6 1870.95,-880.6 1922.38,-870.92 1977.53,-860.53"/>
<text xml:space="preserve" text-anchor="middle" x="1230.27" y="-910.25" font-family="Segoe UI" font-size="8.00">reviewer 1 to 0..*</text>
</g>
<!-- order_item_refunds -->
<g id="node17" class="node">
<title>order_item_refunds</title>
<path fill="#dcfce7" stroke="#64748b" d="M2426.74,-885.38C2426.74,-885.38 2667.28,-885.38 2667.28,-885.38 2673.28,-885.38 2679.28,-891.38 2679.28,-897.38 2679.28,-897.38 2679.28,-969.83 2679.28,-969.83 2679.28,-975.83 2673.28,-981.83 2667.28,-981.83 2667.28,-981.83 2426.74,-981.83 2426.74,-981.83 2420.74,-981.83 2414.74,-975.83 2414.74,-969.83 2414.74,-969.83 2414.74,-897.38 2414.74,-897.38 2414.74,-891.38 2420.74,-885.38 2426.74,-885.38"/>
<text xml:space="preserve" text-anchor="middle" x="2458.38" y="-931.43" font-family="Segoe UI" font-size="9.00">order_item_refunds</text>
<polyline fill="none" stroke="#64748b" points="2502.01,-885.38 2502.01,-981.83"/>
<text xml:space="preserve" text-anchor="start" x="2507.77" y="-969.68" font-family="Segoe UI" font-size="9.00">PK order_item_refund_id : BIGINT</text>
<text xml:space="preserve" text-anchor="start" x="2507.77" y="-956.93" font-family="Segoe UI" font-size="9.00">FK order_item_id / order_id : BIGINT, NN</text>
<text xml:space="preserve" text-anchor="start" x="2507.77" y="-944.18" font-family="Segoe UI" font-size="9.00">refund_amount_usd : NN</text>
<text xml:space="preserve" text-anchor="start" x="2507.77" y="-931.43" font-family="Segoe UI" font-size="9.00">FK created_by_app_user_id : BIGINT?</text>
<text xml:space="preserve" text-anchor="start" x="2507.77" y="-918.68" font-family="Segoe UI" font-size="9.00">FK refund_request_id : BIGINT?</text>
<text xml:space="preserve" text-anchor="start" x="2507.77" y="-905.93" font-family="Segoe UI" font-size="9.00">record_origin : imported / staff / customer</text>
<text xml:space="preserve" text-anchor="start" x="2507.77" y="-893.18" font-family="Segoe UI" font-size="9.00">row_version : NN</text>
</g>
<!-- app_users&#45;&gt;order_item_refunds -->
<g id="edge28" class="edge">
<title>app_users&#45;&gt;order_item_refunds</title>
<path fill="none" stroke="#0f766e" stroke-dasharray="5,2" d="M261.28,-860.84C280.97,-868.23 295.29,-873.6 295.29,-873.6 295.29,-873.6 567.31,-982.6 567.31,-982.6 567.31,-982.6 567.31,-982.6 2111.97,-982.6 2111.97,-982.6 2286.59,-962.89 2414.31,-948.47"/>
<text xml:space="preserve" text-anchor="middle" x="1446.79" y="-986.25" font-family="Segoe UI" font-size="8.00">processor 1 to 0..*</text>
</g>
<!-- customer_accounts -->
<g id="node2" class="node">
<title>customer_accounts</title>
<path fill="#dbeafe" stroke="#64748b" d="M12,-170.75C12,-170.75 283.29,-170.75 283.29,-170.75 289.29,-170.75 295.29,-176.75 295.29,-182.75 295.29,-182.75 295.29,-242.45 295.29,-242.45 295.29,-248.45 289.29,-254.45 283.29,-254.45 283.29,-254.45 12,-254.45 12,-254.45 6,-254.45 0,-248.45 0,-242.45 0,-242.45 0,-182.75 0,-182.75 0,-176.75 6,-170.75 12,-170.75"/>
<text xml:space="preserve" text-anchor="middle" x="44.01" y="-210.42" font-family="Segoe UI" font-size="9.00">customer_accounts</text>
<polyline fill="none" stroke="#64748b" points="88.02,-170.75 88.02,-254.45"/>
<text xml:space="preserve" text-anchor="start" x="93.78" y="-242.3" font-family="Segoe UI" font-size="9.00">PK customer_account_id : BIGINT identity</text>
<text xml:space="preserve" text-anchor="start" x="93.78" y="-229.55" font-family="Segoe UI" font-size="9.00">dataset_user_id : BIGINT?, partial UQ (logical only)</text>
<text xml:space="preserve" text-anchor="start" x="93.78" y="-216.8" font-family="Segoe UI" font-size="9.00">email : VARCHAR(254), CI&#45;UQ, NN</text>
<text xml:space="preserve" text-anchor="start" x="93.78" y="-204.05" font-family="Segoe UI" font-size="9.00">password_hash : TEXT, NN</text>
<text xml:space="preserve" text-anchor="start" x="93.78" y="-191.3" font-family="Segoe UI" font-size="9.00">is_active / lockout / reset / token_version</text>
<text xml:space="preserve" text-anchor="start" x="93.78" y="-178.55" font-family="Segoe UI" font-size="9.00">row_version / timestamps</text>
</g>
<!-- customer_profiles -->
<g id="node3" class="node">
<title>customer_profiles</title>
<path fill="#dbeafe" stroke="#64748b" d="M461.91,-0.5C461.91,-0.5 674.7,-0.5 674.7,-0.5 680.7,-0.5 686.7,-6.5 686.7,-12.5 686.7,-12.5 686.7,-46.7 686.7,-46.7 686.7,-52.7 680.7,-58.7 674.7,-58.7 674.7,-58.7 461.91,-58.7 461.91,-58.7 455.91,-58.7 449.91,-52.7 449.91,-46.7 449.91,-46.7 449.91,-12.5 449.91,-12.5 449.91,-6.5 455.91,-0.5 461.91,-0.5"/>
<text xml:space="preserve" text-anchor="middle" x="490.55" y="-27.42" font-family="Segoe UI" font-size="9.00">customer_profiles</text>
<polyline fill="none" stroke="#64748b" points="531.18,-0.5 531.18,-58.7"/>
<text xml:space="preserve" text-anchor="start" x="536.94" y="-46.55" font-family="Segoe UI" font-size="9.00">PK/FK customer_account_id : BIGINT</text>
<text xml:space="preserve" text-anchor="start" x="536.94" y="-33.8" font-family="Segoe UI" font-size="9.00">first_name / last_name : NN</text>
<text xml:space="preserve" text-anchor="start" x="536.94" y="-21.05" font-family="Segoe UI" font-size="9.00">phone : VARCHAR?</text>
<text xml:space="preserve" text-anchor="start" x="536.94" y="-8.3" font-family="Segoe UI" font-size="9.00">row_version / timestamps</text>
</g>
<!-- customer_accounts&#45;&gt;customer_profiles -->
<g id="edge7" class="edge">
<title>customer_accounts&#45;&gt;customer_profiles</title>
<path fill="none" stroke="#2563eb" d="M202.88,-170.39C257.99,-127.51 335.29,-67.35 335.29,-67.35 335.29,-67.35 392.17,-58.1 449.6,-48.75"/>
<text xml:space="preserve" text-anchor="middle" x="366.04" y="-71" font-family="Segoe UI" font-size="8.00">1 to 0..1</text>
</g>
<!-- customer_addresses -->
<g id="node4" class="node">
<title>customer_addresses</title>
<path fill="#dbeafe" stroke="#64748b" d="M775.46,-115.75C775.46,-115.75 1013.75,-115.75 1013.75,-115.75 1019.75,-115.75 1025.75,-121.75 1025.75,-127.75 1025.75,-127.75 1025.75,-187.45 1025.75,-187.45 1025.75,-193.45 1019.75,-199.45 1013.75,-199.45 1013.75,-199.45 775.46,-199.45 775.46,-199.45 769.46,-199.45 763.46,-193.45 763.46,-187.45 763.46,-187.45 763.46,-127.75 763.46,-127.75 763.46,-121.75 769.46,-115.75 775.46,-115.75"/>
<text xml:space="preserve" text-anchor="middle" x="808.59" y="-155.42" font-family="Segoe UI" font-size="9.00">customer_addresses</text>
<polyline fill="none" stroke="#64748b" points="853.73,-115.75 853.73,-199.45"/>
<text xml:space="preserve" text-anchor="start" x="859.49" y="-187.3" font-family="Segoe UI" font-size="9.00">PK customer_address_id : BIGINT identity</text>
<text xml:space="preserve" text-anchor="start" x="859.49" y="-174.55" font-family="Segoe UI" font-size="9.00">FK customer_account_id : BIGINT, NN</text>
<text xml:space="preserve" text-anchor="start" x="859.49" y="-161.8" font-family="Segoe UI" font-size="9.00">label / recipient / full address : NN</text>
<text xml:space="preserve" text-anchor="start" x="859.49" y="-149.05" font-family="Segoe UI" font-size="9.00">phone / address_line_2 : ?</text>
<text xml:space="preserve" text-anchor="start" x="859.49" y="-136.3" font-family="Segoe UI" font-size="9.00">is_default / is_active</text>
<text xml:space="preserve" text-anchor="start" x="859.49" y="-123.55" font-family="Segoe UI" font-size="9.00">row_version / timestamps</text>
</g>
<!-- customer_accounts&#45;&gt;customer_addresses -->
<g id="edge8" class="edge">
<title>customer_accounts&#45;&gt;customer_addresses</title>
<path fill="none" stroke="#2563eb" d="M295.38,-201.77C431.55,-191.71 632.35,-176.89 763.07,-167.24"/>
<text xml:space="preserve" text-anchor="middle" x="366.04" y="-202.34" font-family="Segoe UI" font-size="8.00">1 to 0..*</text>
</g>
<!-- payment_methods -->
<g id="node5" class="node">
<title>payment_methods</title>
<path fill="#dbeafe" stroke="#64748b" d="M751.83,-205.75C751.83,-205.75 1037.37,-205.75 1037.37,-205.75 1043.37,-205.75 1049.37,-211.75 1049.37,-217.75 1049.37,-217.75 1049.37,-277.45 1049.37,-277.45 1049.37,-283.45 1043.37,-289.45 1037.37,-289.45 1037.37,-289.45 751.83,-289.45 751.83,-289.45 745.83,-289.45 739.83,-283.45 739.83,-277.45 739.83,-277.45 739.83,-217.75 739.83,-217.75 739.83,-211.75 745.83,-205.75 751.83,-205.75"/>
<text xml:space="preserve" text-anchor="middle" x="805.22" y="-245.42" font-family="Segoe UI" font-size="9.00">payment_methods (simulated)</text>
<polyline fill="none" stroke="#64748b" points="870.6,-205.75 870.6,-289.45"/>
<text xml:space="preserve" text-anchor="start" x="876.36" y="-277.3" font-family="Segoe UI" font-size="9.00">PK payment_method_id : BIGINT identity</text>
<text xml:space="preserve" text-anchor="start" x="876.36" y="-264.55" font-family="Segoe UI" font-size="9.00">FK customer_account_id : BIGINT, NN</text>
<text xml:space="preserve" text-anchor="start" x="876.36" y="-251.8" font-family="Segoe UI" font-size="9.00">method_type / display_label : NN</text>
<text xml:space="preserve" text-anchor="start" x="876.36" y="-239.05" font-family="Segoe UI" font-size="9.00">card_brand / last_four : safe metadata only</text>
<text xml:space="preserve" text-anchor="start" x="876.36" y="-226.3" font-family="Segoe UI" font-size="9.00">is_default / is_active</text>
<text xml:space="preserve" text-anchor="start" x="876.36" y="-213.55" font-family="Segoe UI" font-size="9.00">row_version / timestamps</text>
</g>
<!-- customer_accounts&#45;&gt;payment_methods -->
<g id="edge9" class="edge">
<title>customer_accounts&#45;&gt;payment_methods</title>
<path fill="none" stroke="#2563eb" d="M295.38,-219.49C423.6,-225.52 609.13,-234.23 739.49,-240.36"/>
<text xml:space="preserve" text-anchor="middle" x="366.04" y="-227.85" font-family="Segoe UI" font-size="8.00">1 to 0..*</text>
</g>
<!-- shopping_carts -->
<g id="node10" class="node">
<title>shopping_carts</title>
<path fill="#fef3c7" stroke="#64748b" d="M461.54,-463.12C461.54,-463.12 675.08,-463.12 675.08,-463.12 681.08,-463.12 687.08,-469.12 687.08,-475.12 687.08,-475.12 687.08,-522.08 687.08,-522.08 687.08,-528.08 681.08,-534.08 675.08,-534.08 675.08,-534.08 461.54,-534.08 461.54,-534.08 455.54,-534.08 449.54,-528.08 449.54,-522.08 449.54,-522.08 449.54,-475.12 449.54,-475.12 449.54,-469.12 455.54,-463.12 461.54,-463.12"/>
<text xml:space="preserve" text-anchor="middle" x="485.3" y="-496.43" font-family="Segoe UI" font-size="9.00">shopping_carts</text>
<polyline fill="none" stroke="#64748b" points="521.06,-463.12 521.06,-534.08"/>
<text xml:space="preserve" text-anchor="start" x="526.82" y="-521.93" font-family="Segoe UI" font-size="9.00">PK shopping_cart_id : BIGINT identity</text>
<text xml:space="preserve" text-anchor="start" x="526.82" y="-509.18" font-family="Segoe UI" font-size="9.00">FK customer_account_id : BIGINT, NN</text>
<text xml:space="preserve" text-anchor="start" x="526.82" y="-496.43" font-family="Segoe UI" font-size="9.00">status : active / converted / abandoned</text>
<text xml:space="preserve" text-anchor="start" x="526.82" y="-483.68" font-family="Segoe UI" font-size="9.00">FK converted_order_id : BIGINT?, UQ</text>
<text xml:space="preserve" text-anchor="start" x="526.82" y="-470.93" font-family="Segoe UI" font-size="9.00">row_version / timestamps</text>
</g>
<!-- customer_accounts&#45;&gt;shopping_carts -->
<g id="edge10" class="edge">
<title>customer_accounts&#45;&gt;shopping_carts</title>
<path fill="none" stroke="#2563eb" d="M182.45,-254.79C236.23,-321.94 335.29,-445.6 335.29,-445.6 335.29,-445.6 391.94,-458.54 449.26,-471.63"/>
<text xml:space="preserve" text-anchor="middle" x="366.04" y="-473.31" font-family="Segoe UI" font-size="8.00">1 to 0..*</text>
<text xml:space="preserve" text-anchor="middle" x="366.04" y="-462.06" font-family="Segoe UI" font-size="8.00">(at most 1 active)</text>
</g>
<!-- customer_accounts&#45;&gt;orders -->
<g id="edge11" class="edge">
<title>customer_accounts&#45;&gt;orders</title>
<path fill="none" stroke="#2563eb" d="M218.76,-254.94C304.06,-306.45 436.79,-386.6 436.79,-386.6 436.79,-386.6 891.31,-438.22 1111.91,-463.27"/>
<text xml:space="preserve" text-anchor="middle" x="568.31" y="-419.08" font-family="Segoe UI" font-size="8.00">owner: 1 to 0..* customer orders</text>
</g>
<!-- customer_accounts&#45;&gt;refund_requests -->
<g id="edge12" class="edge">
<title>customer_accounts&#45;&gt;refund_requests</title>
<path fill="none" stroke="#2563eb" d="M295.66,-172.22C416.3,-139.08 567.31,-97.6 567.31,-97.6 567.31,-97.6 567.31,-97.6 1697.68,-97.6 1697.68,-97.6 1870.95,-123.6 1870.95,-123.6 1870.95,-123.6 2044.48,-640.51 2095.82,-793.46"/>
<text xml:space="preserve" text-anchor="middle" x="1230.27" y="-101.25" font-family="Segoe UI" font-size="8.00">owner: 1 to 0..*</text>
</g>
<!-- order_shipping_addresses -->
<g id="node14" class="node">
<title>order_shipping_addresses</title>
<path fill="#ffe4e6" stroke="#64748b" d="M1543.79,-136.12C1543.79,-136.12 1849.58,-136.12 1849.58,-136.12 1855.58,-136.12 1861.58,-142.12 1861.58,-148.12 1861.58,-148.12 1861.58,-195.07 1861.58,-195.07 1861.58,-201.07 1855.58,-207.07 1849.58,-207.07 1849.58,-207.07 1543.79,-207.07 1543.79,-207.07 1537.79,-207.07 1531.79,-201.07 1531.79,-195.07 1531.79,-195.07 1531.79,-148.12 1531.79,-148.12 1531.79,-142.12 1537.79,-136.12 1543.79,-136.12"/>
<text xml:space="preserve" text-anchor="middle" x="1610.3" y="-169.42" font-family="Segoe UI" font-size="9.00">order_shipping_addresses (snapshot)</text>
<polyline fill="none" stroke="#64748b" points="1688.81,-136.12 1688.81,-207.07"/>
<text xml:space="preserve" text-anchor="start" x="1694.57" y="-194.92" font-family="Segoe UI" font-size="9.00">PK/FK order_id : BIGINT</text>
<text xml:space="preserve" text-anchor="start" x="1694.57" y="-182.17" font-family="Segoe UI" font-size="9.00">FK customer_account_id : BIGINT, NN</text>
<text xml:space="preserve" text-anchor="start" x="1694.57" y="-169.42" font-family="Segoe UI" font-size="9.00">FK source_customer_address_id : BIGINT?</text>
<text xml:space="preserve" text-anchor="start" x="1694.57" y="-156.67" font-family="Segoe UI" font-size="9.00">recipient/contact/full address snapshot</text>
<text xml:space="preserve" text-anchor="start" x="1694.57" y="-143.92" font-family="Segoe UI" font-size="9.00">row_version / timestamps</text>
</g>
<!-- customer_addresses&#45;&gt;order_shipping_addresses -->
<g id="edge23" class="edge">
<title>customer_addresses&#45;&gt;order_shipping_addresses</title>
<path fill="none" stroke="#64748b" stroke-dasharray="5,2" d="M1025.93,-159.88C1163.86,-162.29 1381.86,-166.11 1531.45,-168.73"/>
<text xml:space="preserve" text-anchor="middle" x="1230.27" y="-169.44" font-family="Segoe UI" font-size="8.00">optional snapshot source</text>
</g>
<!-- order_payments -->
<g id="node15" class="node">
<title>order_payments</title>
<path fill="#ffe4e6" stroke="#64748b" d="M1545.66,-233.38C1545.66,-233.38 1847.7,-233.38 1847.7,-233.38 1853.7,-233.38 1859.7,-239.38 1859.7,-245.38 1859.7,-245.38 1859.7,-317.83 1859.7,-317.83 1859.7,-323.83 1853.7,-329.83 1847.7,-329.83 1847.7,-329.83 1545.66,-329.83 1545.66,-329.83 1539.66,-329.83 1533.66,-323.83 1533.66,-317.83 1533.66,-317.83 1533.66,-245.38 1533.66,-245.38 1533.66,-239.38 1539.66,-233.38 1545.66,-233.38"/>
<text xml:space="preserve" text-anchor="middle" x="1613.3" y="-279.43" font-family="Segoe UI" font-size="9.00">order_payments (simulated snapshot)</text>
<polyline fill="none" stroke="#64748b" points="1692.93,-233.38 1692.93,-329.83"/>
<text xml:space="preserve" text-anchor="start" x="1698.69" y="-317.68" font-family="Segoe UI" font-size="9.00">PK order_payment_id : BIGINT identity</text>
<text xml:space="preserve" text-anchor="start" x="1698.69" y="-304.93" font-family="Segoe UI" font-size="9.00">FK/UQ order_id : BIGINT, NN</text>
<text xml:space="preserve" text-anchor="start" x="1698.69" y="-292.18" font-family="Segoe UI" font-size="9.00">FK customer_account_id : BIGINT, NN</text>
<text xml:space="preserve" text-anchor="start" x="1698.69" y="-279.43" font-family="Segoe UI" font-size="9.00">FK payment_method_id : BIGINT?</text>
<text xml:space="preserve" text-anchor="start" x="1698.69" y="-266.68" font-family="Segoe UI" font-size="9.00">method / safe display / status / amount</text>
<text xml:space="preserve" text-anchor="start" x="1698.69" y="-253.93" font-family="Segoe UI" font-size="9.00">simulated_reference / processed_at : ?</text>
<text xml:space="preserve" text-anchor="start" x="1698.69" y="-241.18" font-family="Segoe UI" font-size="9.00">row_version / timestamps</text>
</g>
<!-- payment_methods&#45;&gt;order_payments -->
<g id="edge24" class="edge">
<title>payment_methods&#45;&gt;order_payments</title>
<path fill="none" stroke="#64748b" stroke-dasharray="5,2" d="M1049.67,-253.35C1188.57,-258.54 1371.16,-265.35 1371.16,-265.35 1371.16,-265.35 1452.29,-269.41 1533.42,-273.48"/>
<text xml:space="preserve" text-anchor="middle" x="1230.27" y="-269" font-family="Segoe UI" font-size="8.00">optional snapshot source</text>
</g>
<!-- website_sessions -->
<g id="node6" class="node">
<title>website_sessions</title>
<path fill="#e0e7ff" stroke="#64748b" d="M448.79,-327.88C448.79,-327.88 687.83,-327.88 687.83,-327.88 693.83,-327.88 699.83,-333.88 699.83,-339.88 699.83,-339.88 699.83,-361.33 699.83,-361.33 699.83,-367.33 693.83,-373.33 687.83,-373.33 687.83,-373.33 448.79,-373.33 448.79,-373.33 442.79,-373.33 436.79,-367.33 436.79,-361.33 436.79,-361.33 436.79,-339.88 436.79,-339.88 436.79,-333.88 442.79,-327.88 448.79,-327.88"/>
<text xml:space="preserve" text-anchor="middle" x="498.8" y="-348.43" font-family="Segoe UI" font-size="9.00">website_sessions (read&#45;only)</text>
<polyline fill="none" stroke="#64748b" points="560.81,-327.88 560.81,-373.33"/>
<text xml:space="preserve" text-anchor="start" x="566.57" y="-361.18" font-family="Segoe UI" font-size="9.00">PK website_session_id : BIGINT</text>
<text xml:space="preserve" text-anchor="start" x="566.57" y="-348.43" font-family="Segoe UI" font-size="9.00">created_at / dataset user_id : NN</text>
<text xml:space="preserve" text-anchor="start" x="566.57" y="-335.68" font-family="Segoe UI" font-size="9.00">repeat / UTM / device / referrer</text>
</g>
<!-- website_pageviews -->
<g id="node7" class="node">
<title>website_pageviews</title>
<path fill="#e0e7ff" stroke="#64748b" d="M1101.37,-343.88C1101.37,-343.88 1359.16,-343.88 1359.16,-343.88 1365.16,-343.88 1371.16,-349.88 1371.16,-355.88 1371.16,-355.88 1371.16,-377.33 1371.16,-377.33 1371.16,-383.33 1365.16,-389.33 1359.16,-389.33 1359.16,-389.33 1101.37,-389.33 1101.37,-389.33 1095.37,-389.33 1089.37,-383.33 1089.37,-377.33 1089.37,-377.33 1089.37,-355.88 1089.37,-355.88 1089.37,-349.88 1095.37,-343.88 1101.37,-343.88"/>
<text xml:space="preserve" text-anchor="middle" x="1155.88" y="-364.43" font-family="Segoe UI" font-size="9.00">website_pageviews (read&#45;only)</text>
<polyline fill="none" stroke="#64748b" points="1222.39,-343.88 1222.39,-389.33"/>
<text xml:space="preserve" text-anchor="start" x="1228.15" y="-377.18" font-family="Segoe UI" font-size="9.00">PK website_pageview_id : BIGINT</text>
<text xml:space="preserve" text-anchor="start" x="1228.15" y="-364.43" font-family="Segoe UI" font-size="9.00">FK website_session_id : BIGINT, NN</text>
<text xml:space="preserve" text-anchor="start" x="1228.15" y="-351.68" font-family="Segoe UI" font-size="9.00">created_at / pageview_url : NN</text>
</g>
<!-- website_sessions&#45;&gt;website_pageviews -->
<g id="edge1" class="edge">
<title>website_sessions&#45;&gt;website_pageviews</title>
<path fill="none" stroke="#64748b" d="M700.28,-349.64C723.18,-349.47 739.83,-349.35 739.83,-349.35 739.83,-349.35 1049.37,-349.35 1049.37,-349.35 1049.37,-349.35 1066.07,-350.95 1089.29,-353.18"/>
<text xml:space="preserve" text-anchor="middle" x="894.6" y="-353" font-family="Segoe UI" font-size="8.00">1 to 0..*</text>
</g>
<!-- website_sessions&#45;&gt;orders -->
<g id="edge2" class="edge">
<title>website_sessions&#45;&gt;orders</title>
<path fill="none" stroke="#2563eb" d="M700.17,-361.64C842.32,-373.63 1049.37,-391.1 1049.37,-391.1 1049.37,-391.1 1077.65,-404.54 1111.78,-420.76"/>
<text xml:space="preserve" text-anchor="middle" x="894.6" y="-406" font-family="Segoe UI" font-size="8.00">1 to 0..1 when session ID non&#45;null</text>
<text xml:space="preserve" text-anchor="middle" x="894.6" y="-394.75" font-family="Segoe UI" font-size="8.00">(UQ website_session_id)</text>
</g>
<!-- historical_customer_summary -->
<g id="node18" class="node">
<title>historical_customer_summary</title>
<path fill="#f1f5f9" stroke="#64748b" d="M1534.41,-378.12C1534.41,-378.12 1858.95,-378.12 1858.95,-378.12 1864.95,-378.12 1870.95,-384.12 1870.95,-390.12 1870.95,-390.12 1870.95,-437.08 1870.95,-437.08 1870.95,-443.08 1864.95,-449.08 1858.95,-449.08 1858.95,-449.08 1534.41,-449.08 1534.41,-449.08 1528.41,-449.08 1522.41,-443.08 1522.41,-437.08 1522.41,-437.08 1522.41,-390.12 1522.41,-390.12 1522.41,-384.12 1528.41,-378.12 1534.41,-378.12"/>
<text xml:space="preserve" text-anchor="middle" x="1619.67" y="-411.43" font-family="Segoe UI" font-size="9.00">historical_customer_summary (read&#45;only view)</text>
<polyline fill="none" stroke="#64748b" points="1716.93,-378.12 1716.93,-449.08"/>
<text xml:space="preserve" text-anchor="start" x="1722.69" y="-436.93" font-family="Segoe UI" font-size="9.00">dataset_user_id</text>
<text xml:space="preserve" text-anchor="start" x="1722.69" y="-424.18" font-family="Segoe UI" font-size="9.00">session / order counts; repeat visitor</text>
<text xml:space="preserve" text-anchor="start" x="1722.69" y="-411.43" font-family="Segoe UI" font-size="9.00">total spent / refund total</text>
<text xml:space="preserve" text-anchor="start" x="1722.69" y="-398.68" font-family="Segoe UI" font-size="9.00">last visit / latest UTM / device</text>
<text xml:space="preserve" text-anchor="start" x="1722.69" y="-385.93" font-family="Segoe UI" font-size="9.00">canonical imported data only; no PII</text>
</g>
<!-- website_sessions&#45;&gt;historical_customer_summary -->
<g id="edge21" class="edge">
<title>website_sessions&#45;&gt;historical_customer_summary</title>
<path fill="none" stroke="#64748b" stroke-dasharray="1,5" d="M700.21,-342.73C854.27,-333.48 1089.37,-319.35 1089.37,-319.35 1089.37,-319.35 1371.16,-319.35 1371.16,-319.35 1371.16,-319.35 1480.36,-351.06 1572.07,-377.7"/>
<text xml:space="preserve" text-anchor="middle" x="1230.27" y="-323" font-family="Segoe UI" font-size="8.00">deidentified aggregate</text>
</g>
<!-- products&#45;&gt;product_catalog_details -->
<g id="edge3" class="edge">
<title>products&#45;&gt;product_catalog_details</title>
<path fill="none" stroke="#64748b" d="M669,-708.71C706.31,-712.87 739.83,-716.6 739.83,-716.6 739.83,-716.6 946.55,-738.99 1091.3,-754.66"/>
<text xml:space="preserve" text-anchor="middle" x="894.6" y="-753.06" font-family="Segoe UI" font-size="8.00">1 to 0..1</text>
</g>
<!-- cart_items -->
<g id="node11" class="node">
<title>cart_items</title>
<path fill="#fef3c7" stroke="#64748b" d="M1119.75,-563.75C1119.75,-563.75 1340.79,-563.75 1340.79,-563.75 1346.79,-563.75 1352.79,-569.75 1352.79,-575.75 1352.79,-575.75 1352.79,-635.45 1352.79,-635.45 1352.79,-641.45 1346.79,-647.45 1340.79,-647.45 1340.79,-647.45 1119.75,-647.45 1119.75,-647.45 1113.75,-647.45 1107.75,-641.45 1107.75,-635.45 1107.75,-635.45 1107.75,-575.75 1107.75,-575.75 1107.75,-569.75 1113.75,-563.75 1119.75,-563.75"/>
<text xml:space="preserve" text-anchor="middle" x="1133.38" y="-603.43" font-family="Segoe UI" font-size="9.00">cart_items</text>
<polyline fill="none" stroke="#64748b" points="1159.02,-563.75 1159.02,-647.45"/>
<text xml:space="preserve" text-anchor="start" x="1164.78" y="-635.3" font-family="Segoe UI" font-size="9.00">PK cart_item_id : BIGINT identity</text>
<text xml:space="preserve" text-anchor="start" x="1164.78" y="-622.55" font-family="Segoe UI" font-size="9.00">FK shopping_cart_id / product_id : BIGINT, NN</text>
<text xml:space="preserve" text-anchor="start" x="1164.78" y="-609.8" font-family="Segoe UI" font-size="9.00">quantity : 1..99</text>
<text xml:space="preserve" text-anchor="start" x="1164.78" y="-597.05" font-family="Segoe UI" font-size="9.00">unit_price_usd : positive</text>
<text xml:space="preserve" text-anchor="start" x="1164.78" y="-584.3" font-family="Segoe UI" font-size="9.00">UQ (shopping_cart_id, product_id)</text>
<text xml:space="preserve" text-anchor="start" x="1164.78" y="-571.55" font-family="Segoe UI" font-size="9.00">row_version / timestamps</text>
</g>
<!-- products&#45;&gt;cart_items -->
<g id="edge4" class="edge">
<title>products&#45;&gt;cart_items</title>
<path fill="none" stroke="#64748b" d="M669,-679.92C706.31,-673.3 739.83,-667.35 739.83,-667.35 739.83,-667.35 1049.37,-639.6 1049.37,-639.6 1049.37,-639.6 1075.2,-634.72 1107.28,-628.66"/>
<text xml:space="preserve" text-anchor="middle" x="894.6" y="-671" font-family="Segoe UI" font-size="8.00">1 to 0..*</text>
</g>
<!-- products&#45;&gt;orders -->
<g id="edge6" class="edge">
<title>products&#45;&gt;orders</title>
<path fill="none" stroke="#64748b" d="M655.07,-661.77C697.53,-644.02 739.83,-626.35 739.83,-626.35 739.83,-626.35 1049.37,-598.6 1049.37,-598.6 1049.37,-598.6 1089.37,-550.6 1089.37,-550.6 1089.37,-550.6 1098.95,-545.53 1113.1,-538.05"/>
<text xml:space="preserve" text-anchor="middle" x="894.6" y="-630" font-family="Segoe UI" font-size="8.00">primary product: 1 to 0..*</text>
</g>
<!-- products&#45;&gt;order_items -->
<g id="edge5" class="edge">
<title>products&#45;&gt;order_items</title>
<path fill="none" stroke="#64748b" d="M668.84,-699.18C883.58,-702.6 1371.16,-710.35 1371.16,-710.35 1371.16,-710.35 1494,-751.7 1588.52,-783.52"/>
<text xml:space="preserve" text-anchor="middle" x="1230.27" y="-714" font-family="Segoe UI" font-size="8.00">1 to 0..*</text>
</g>
<!-- shopping_carts&#45;&gt;cart_items -->
<g id="edge13" class="edge">
<title>shopping_carts&#45;&gt;cart_items</title>
<path fill="none" stroke="#64748b" d="M687.3,-517.73C805.75,-536.94 987.42,-566.39 1107.27,-585.82"/>
<text xml:space="preserve" text-anchor="middle" x="894.6" y="-577.63" font-family="Segoe UI" font-size="8.00">1 to 0..*</text>
</g>
<!-- shopping_carts&#45;&gt;orders -->
<g id="edge14" class="edge">
<title>shopping_carts&#45;&gt;orders</title>
<path fill="none" stroke="#64748b" stroke-dasharray="5,2" d="M687.3,-494.67C807.33,-490.67 992.26,-484.5 1112.02,-480.51"/>
<text xml:space="preserve" text-anchor="middle" x="894.6" y="-496.35" font-family="Segoe UI" font-size="8.00">converted to 0..1</text>
</g>
<!-- orders&#45;&gt;order_items -->
<g id="edge15" class="edge">
<title>orders&#45;&gt;order_items</title>
<path fill="none" stroke="#64748b" d="M1347.43,-538.05C1361.58,-545.53 1371.16,-550.6 1371.16,-550.6 1371.16,-550.6 1543.39,-693.37 1636.91,-770.89"/>
<text xml:space="preserve" text-anchor="middle" x="1446.79" y="-652.51" font-family="Segoe UI" font-size="8.00">1 to 0..*</text>
<text xml:space="preserve" text-anchor="middle" x="1446.79" y="-641.26" font-family="Segoe UI" font-size="8.00">origin matched</text>
</g>
<!-- orders&#45;&gt;order_shipping_addresses -->
<g id="edge16" class="edge">
<title>orders&#45;&gt;order_shipping_addresses</title>
<path fill="none" stroke="#64748b" d="M1347.43,-415.15C1361.58,-407.67 1371.16,-402.6 1371.16,-402.6 1371.16,-402.6 1522.41,-220.6 1522.41,-220.6 1522.41,-220.6 1542.42,-214.94 1568.84,-207.47"/>
<text xml:space="preserve" text-anchor="middle" x="1446.79" y="-357.44" font-family="Segoe UI" font-size="8.00">1 to 0..1</text>
</g>
<!-- orders&#45;&gt;order_payments -->
<g id="edge17" class="edge">
<title>orders&#45;&gt;order_payments</title>
<path fill="none" stroke="#64748b" d="M1348.76,-427.27C1419.56,-397.54 1509.38,-359.83 1579.88,-330.22"/>
<text xml:space="preserve" text-anchor="middle" x="1446.79" y="-400.22" font-family="Segoe UI" font-size="8.00">1 to 0..1</text>
</g>
<!-- orders&#45;&gt;historical_customer_summary -->
<g id="edge22" class="edge">
<title>orders&#45;&gt;historical_customer_summary</title>
<path fill="none" stroke="#64748b" stroke-dasharray="1,5" d="M1348.76,-460.66C1401.29,-453.54 1464.29,-444.99 1522.1,-437.15"/>
<text xml:space="preserve" text-anchor="middle" x="1446.79" y="-454.39" font-family="Segoe UI" font-size="8.00">canonical aggregate</text>
</g>
<!-- order_items&#45;&gt;refund_requests -->
<g id="edge18" class="edge">
<title>order_items&#45;&gt;refund_requests</title>
<path fill="none" stroke="#64748b" d="M1804.93,-823.76C1857.66,-825.81 1921.7,-828.29 1977.46,-830.46"/>
<text xml:space="preserve" text-anchor="middle" x="1924.45" y="-832.21" font-family="Segoe UI" font-size="8.00">1 to 0..*</text>
</g>
<!-- order_items&#45;&gt;order_item_refunds -->
<g id="edge19" class="edge">
<title>order_items&#45;&gt;order_item_refunds</title>
<path fill="none" stroke="#64748b" d="M1804.84,-846.75C1883.96,-866.79 1977.95,-890.6 1977.95,-890.6 1977.95,-890.6 2246.45,-910.92 2414.26,-923.63"/>
<text xml:space="preserve" text-anchor="middle" x="2110.97" y="-914.32" font-family="Segoe UI" font-size="8.00">1 to 0..*</text>
</g>
<!-- refund_requests&#45;&gt;order_item_refunds -->
<g id="edge20" class="edge">
<title>refund_requests&#45;&gt;order_item_refunds</title>
<path fill="none" stroke="#64748b" d="M2244.26,-865.47C2298.24,-877.66 2360.53,-891.72 2414.44,-903.89"/>
<text xml:space="preserve" text-anchor="middle" x="2329.37" y="-897.03" font-family="Segoe UI" font-size="8.00">1 to 0..1 processed result</text>
</g>
<!-- note -->
<g id="node19" class="node">
<title>note</title>
<polygon fill="#fff7ed" stroke="#64748b" points="244.15,-969.45 45.13,-969.45 45.13,-885.75 250.15,-885.75 250.15,-963.45 244.15,-969.45"/>
<polyline fill="none" stroke="#64748b" points="244.15,-969.45 244.15,-963.45"/>
<polyline fill="none" stroke="#64748b" points="250.15,-963.45 244.15,-963.45"/>
<text xml:space="preserve" text-anchor="start" x="50.89" y="-957.3" font-family="Segoe UI" font-size="9.00">Identity boundaries</text>
<text xml:space="preserve" text-anchor="start" x="50.89" y="-944.55" font-family="Segoe UI" font-size="9.00">• app_users = staff only</text>
<text xml:space="preserve" text-anchor="start" x="50.89" y="-931.8" font-family="Segoe UI" font-size="9.00">• customer_accounts = customer login</text>
<text xml:space="preserve" text-anchor="start" x="50.89" y="-919.05" font-family="Segoe UI" font-size="9.00">• dataset user_id = imported shopper ID</text>
<text xml:space="preserve" text-anchor="start" x="50.89" y="-906.3" font-family="Segoe UI" font-size="9.00">• no app_users → dataset user_id FK</text>
<text xml:space="preserve" text-anchor="start" x="50.89" y="-893.55" font-family="Segoe UI" font-size="9.00">• item customer ownership derives through order</text>
</g>
</g>
</svg>
